# Blender 4.0.2
# www.blender.org
o Side
v -33.500000 53.456966 -18.739176
v -24.500002 53.456966 -18.739176
v -33.500000 49.992535 -16.947702
v -24.500002 49.992531 -16.947702
v -33.500000 50.733269 -12.053288
v -24.500002 50.733269 -12.053288
v -33.500000 54.999504 -12.053288
v -24.500002 54.999500 -12.053288
v -33.500000 56.175213 -16.100456
v -24.500002 56.175213 -16.100456
v -33.000000 10.000000 26.589142
v -33.000000 50.004223 -16.687386
v -24.999998 10.000000 26.589142
v -24.999998 50.004223 -16.687386
v -33.000000 53.494930 7.130276
v -24.999998 53.494930 7.130276
v -33.000000 10.000000 -8.686543
v -24.999998 10.000000 -8.686543
v -33.000000 32.674179 28.925299
v -33.000000 35.439106 26.434216
v -24.999998 35.439106 26.434216
v -24.999998 32.674179 28.925299
v -24.999998 40.688972 8.738270
v -24.999998 35.951454 14.356213
v -33.000000 35.951454 14.356213
v -33.000000 40.688972 8.738270
v -30.999998 11.000000 4.170430
v -30.999998 11.000000 -3.829570
v -26.999998 11.000000 4.170430
v -26.999998 11.000000 -3.829570
v -30.999998 2.163656 5.990254
v -30.999998 2.163656 -2.009746
v -26.999998 2.163656 -2.009746
v -26.999998 2.163656 5.990254
v -33.000000 0.000000 -8.180176
v -24.999998 0.000000 -8.180176
v -24.999998 0.000000 11.819824
v -33.000000 0.000000 11.819824
v -33.000000 54.618690 29.115816
v -33.000000 61.604191 28.735783
v -33.000000 50.457111 -13.508048
v -33.000000 56.094753 -14.836984
v -25.000000 54.618690 29.115816
v -25.000000 61.604191 28.735783
v -25.000000 50.457111 -13.508048
v -25.000000 56.094753 -14.836984
v -33.000000 53.467201 7.061734
v -33.000000 60.023121 5.893794
v -25.000000 53.467201 7.061734
v -25.000000 60.023121 5.893794
v -29.000002 53.704567 27.463615
v -29.000002 62.104568 27.052752
v -24.503330 62.104568 28.915335
v -23.051611 53.704567 33.412006
v -22.640747 62.104568 33.412006
v -24.793854 53.704567 37.618156
v -24.503330 62.104568 37.908680
v -29.000002 62.104568 39.771263
v -33.206146 53.704567 37.618156
v -33.496674 62.104568 37.908680
v -35.359261 62.104568 33.412006
v -33.206146 53.704567 29.205860
v -33.496674 62.104568 28.915335
v -29.000002 62.104565 28.932968
v -24.793854 53.704567 29.205860
v -25.832844 62.104565 30.244848
v -24.520964 62.104565 33.412006
v -25.832844 62.104565 36.579163
v -29.000002 53.704567 39.360401
v -29.000002 62.104565 37.891045
v -32.167160 62.104565 36.579163
v -34.948395 53.704567 33.412006
v -33.479042 62.104565 33.412006
v -32.167160 62.104565 30.244848
vn -0.0000 -0.8908 -0.4544
vn -0.0000 -0.6521 0.7582
vn -0.0000 0.6004 0.7997
vn -0.0000 0.9667 -0.2559
vn -0.0000 0.1461 -0.9893
vn 1.0000 -0.0000 -0.0000
vn -1.0000 -0.0000 -0.0000
vn -0.0000 -0.7733 -0.6340
vn -0.0000 -0.1961 -0.9806
vn 0.7989 0.2870 0.5285
vn 0.7876 0.5742 0.2237
vn -0.0000 -1.0000 -0.0000
vn 0.7024 0.0887 0.7062
vn 0.6295 0.7030 0.3309
vn 0.6261 0.2418 0.7413
vn 0.7291 -0.0701 0.6808
vn -0.7024 0.0887 0.7062
vn -0.7989 0.2870 0.5285
vn -0.6261 0.2418 0.7413
vn -0.7291 -0.0701 0.6808
vn -0.6295 0.7030 0.3309
vn -0.7876 0.5742 0.2237
vn -0.5974 0.6988 0.3934
vn -0.7487 0.1337 0.6493
vn -0.6567 -0.1521 -0.7387
vn -0.6915 0.6034 -0.3972
vn 0.6567 -0.1521 -0.7387
vn 0.6915 0.6034 -0.3972
vn 0.7487 0.1337 0.6493
vn 0.5974 0.6988 0.3934
vn 0.2150 0.9374 0.2742
vn 0.2049 0.9425 -0.2641
vn -0.2049 0.9425 -0.2641
vn -0.2150 0.9374 0.2742
vn 0.6941 0.7140 -0.0920
vn -0.6941 0.7140 -0.0920
vn -0.7038 0.7087 -0.0491
vn 0.7038 0.7087 -0.0491
vn 0.8995 -0.4362 0.0228
vn 0.7066 -0.7066 0.0369
vn -0.8995 -0.4362 0.0228
vn -0.6969 0.7046 -0.1335
vn 0.6969 0.7046 -0.1335
vn -0.7066 -0.7066 0.0369
vn 0.5593 0.6118 -0.5593
vn 0.7910 0.6118 -0.0000
vn 0.2902 -0.9570 -0.0000
vn 0.2052 -0.9570 -0.2052
vn 0.5593 0.6118 0.5593
vn 0.2052 -0.9570 0.2052
vn -0.0000 0.6118 0.7910
vn -0.0000 -0.9570 0.2902
vn -0.5593 0.6118 0.5593
vn -0.2052 -0.9570 0.2052
vn -0.7910 0.6118 -0.0000
vn -0.2902 -0.9570 -0.0000
vn -0.5593 0.6118 -0.5593
vn -0.2052 -0.9570 -0.2052
vn -0.0000 0.6118 -0.7910
vn -0.0000 -0.9570 -0.2902
vn -0.4662 0.7519 0.4662
vn -0.0000 0.7519 0.6593
vn -0.6593 0.7519 -0.0000
vn -0.4662 0.7519 -0.4662
vn -0.0000 0.7519 -0.6593
vn 0.4662 0.7519 -0.4662
vn 0.6593 0.7519 -0.0000
vn 0.4662 0.7519 0.4662
vt 0.938352 0.545210
vt 0.938352 0.592346
vt 0.856371 0.592346
vt 0.856371 0.545210
vt 0.938352 0.405935
vt 0.938352 0.446796
vt 0.856371 0.446796
vt 0.856371 0.405935
vt 0.938352 0.487143
vt 0.856371 0.487143
vt 0.938352 0.486259
vt 0.938352 0.522199
vt 0.856371 0.522199
vt 0.856371 0.486259
vt 0.399129 0.892034
vt 0.405033 0.926033
vt 0.374700 0.949563
vt 0.343260 0.926721
vt 0.364007 0.886687
vt 0.077180 0.834641
vt 0.071412 0.869697
vt 0.026925 0.877057
vt 0.014916 0.840098
vt 0.046668 0.818520
vt 0.826538 0.410161
vt 0.826538 0.773006
vt 0.755386 0.773006
vt 0.755386 0.410161
vt 0.706740 0.060412
vt 0.516664 0.291484
vt 0.487336 0.258360
vt 0.115901 0.520529
vt 0.187053 0.520529
vt 0.187053 0.834271
vt 0.115901 0.834271
vt 0.706740 0.060412
vt 0.725553 0.422769
vt 0.511455 0.422769
vt 0.706740 0.060412
vt 0.364868 0.238981
vt 0.346512 0.211436
vt 0.396314 0.014916
vt 0.086069 0.431064
vt 0.086069 0.545855
vt 0.014916 0.545855
vt 0.014916 0.431064
vt 0.086069 0.014916
vt 0.086069 0.218705
vt 0.014916 0.218705
vt 0.014916 0.014916
vt 0.517495 0.581102
vt 0.511455 0.452602
vt 0.725553 0.452602
vt 0.706740 0.814958
vt 0.396314 0.860454
vt 0.346512 0.663934
vt 0.364867 0.636390
vt 0.486505 0.616104
vt 0.706740 0.814958
vt 0.086069 0.251805
vt 0.014916 0.251805
vt 0.938352 0.514327
vt 0.938352 0.550232
vt 0.856371 0.550232
vt 0.856371 0.514327
vt 0.014916 0.360189
vt 0.086069 0.360189
vt 0.929730 0.936686
vt 0.856371 0.921578
vt 0.856371 0.855162
vt 0.929730 0.870270
vt 0.867733 0.313669
vt 0.867733 0.238770
vt 0.900941 0.238770
vt 0.900941 0.313669
vt 0.883484 0.674396
vt 0.956844 0.659288
vt 0.956844 0.725704
vt 0.883484 0.740813
vt 0.771990 0.877738
vt 0.771990 0.802838
vt 0.805198 0.802838
vt 0.805198 0.877738
vt 0.859853 0.789210
vt 0.859853 0.623169
vt 0.953362 0.819043
vt 0.953362 0.985084
vt 0.917545 0.367458
vt 0.851129 0.367458
vt 0.821802 0.928842
vt 0.755386 0.928842
vt 0.248138 0.274352
vt 0.185042 0.274312
vt 0.175738 0.084941
vt 0.256931 0.084940
vt 0.301421 0.272220
vt 0.256110 0.084873
vt 0.315108 0.089633
vt 0.131670 0.272461
vt 0.184427 0.443578
vt 0.137080 0.441787
vt 0.296828 0.441437
vt 0.249494 0.443435
vt 0.117504 0.089694
vt 0.176560 0.084872
vt 0.755387 0.186188
vt 0.821295 0.186188
vt 0.821296 0.368275
vt 0.755386 0.368275
vt 0.279523 0.554862
vt 0.282820 0.589346
vt 0.224281 0.593818
vt 0.221197 0.561562
vt 0.284800 0.623930
vt 0.226133 0.626168
vt 0.285460 0.658565
vt 0.226750 0.658565
vt 0.284799 0.693200
vt 0.226133 0.690962
vt 0.282820 0.727784
vt 0.224281 0.723312
vt 0.279523 0.762268
vt 0.221197 0.755568
vt 0.274914 0.796601
vt 0.216886 0.787683
vt 0.850234 0.199606
vt 0.856332 0.171285
vt 0.912868 0.184878
vt 0.908811 0.208937
vt 0.853913 0.178353
vt 0.858653 0.149774
vt 0.915773 0.160654
vt 0.856573 0.156949
vt 0.859944 0.128176
vt 0.917519 0.136318
vt 0.858210 0.135443
vt 0.860204 0.106541
vt 0.918101 0.111927
vt 0.858818 0.113882
vt 0.859430 0.084919
vt 0.917519 0.087535
vt 0.858396 0.092318
vt 0.857626 0.063358
vt 0.915773 0.063200
vt 0.858653 0.074080
vt 0.853913 0.045500
vt 0.912868 0.038975
vt 0.854471 0.049372
vt 0.850944 0.020617
vt 0.908811 0.014916
vt 0.297338 0.845311
vt 0.303966 0.878635
vt 0.291093 0.876074
vt 0.286424 0.852603
vt 0.269087 0.826434
vt 0.266526 0.839307
vt 0.235763 0.833063
vt 0.243055 0.843976
vt 0.216886 0.861313
vt 0.229760 0.863874
vt 0.223515 0.894638
vt 0.234428 0.887345
vt 0.251766 0.913514
vt 0.254326 0.900641
vt 0.285090 0.906886
vt 0.277798 0.895972
vt 0.274914 0.520529
vt 0.216886 0.529447
vt 0.706740 0.814958
s 1
f 4/1/1 6/2/2 5/3/2 3/4/1
f 6/5/2 8/6/3 7/7/3 5/8/2
f 8/6/3 10/9/4 9/10/4 7/7/3
f 10/11/4 2/12/5 1/13/5 9/14/4
f 2/15/6 10/16/6 8/17/6 6/18/6 4/19/6
f 1/20/7 3/21/7 5/22/7 7/23/7 9/24/7
f 17/25/8 12/26/9 14/27/9 18/28/8
f 18/29/6 23/30/10 24/31/11
f 17/32/8 18/33/8 13/34/12 11/35/12
f 18/36/6 14/37/6 16/38/13 23/30/10
f 18/39/6 24/31/11 21/40/14 22/41/15 13/42/16
f 23/43/10 16/44/13 15/45/17 26/46/18
f 13/47/16 22/48/15 19/49/19 11/50/20
f 26/51/18 15/52/17 12/53/7 17/54/7
f 11/55/20 19/56/19 20/57/21 25/58/22 17/59/7
f 21/60/14 20/61/21 19/49/19 22/48/15
f 2/62/5 4/63/1 3/64/1 1/65/5
f 25/66/22 24/67/11 23/43/10 26/46/18
f 20/61/21 21/60/14 24/67/11 25/66/22
f 31/68/23 27/69/24 28/70/25 32/71/26
f 32/72/26 28/73/25 30/74/27 33/75/28
f 33/76/28 30/77/27 29/78/29 34/79/30
f 34/80/30 29/81/29 27/82/24 31/83/23
f 33/76/28 34/79/30 37/84/31 36/85/32
f 31/68/23 32/71/26 35/86/33 38/87/34
f 32/72/26 33/75/28 36/88/32 35/89/33
f 34/80/30 31/83/23 38/90/34 37/91/31
f 50/92/35 48/93/36 40/94/37 44/95/38
f 49/96/39 50/92/35 44/97/38 43/98/40
f 47/99/41 48/93/36 42/100/42 41/101/7
f 45/102/6 46/103/43 50/92/35 49/96/39
f 46/103/43 42/100/42 48/93/36 50/92/35
f 39/104/44 40/105/37 48/93/36 47/99/41
f 47/106/41 49/107/39 43/108/40 39/109/44
f 53/110/45 55/111/46 54/112/47 65/113/48
f 55/111/46 57/114/49 56/115/50 54/112/47
f 57/114/49 58/116/51 69/117/52 56/115/50
f 58/116/51 60/118/53 59/119/54 69/117/52
f 60/118/53 61/120/55 72/121/56 59/119/54
f 61/120/55 63/122/57 62/123/58 72/121/56
f 63/122/57 52/124/59 51/125/60 62/123/58
f 51/126/60 65/127/48 66/128/61 64/129/62
f 65/130/48 54/131/47 67/132/63 66/128/61
f 54/133/47 56/134/50 68/135/64 67/132/63
f 56/136/50 69/137/52 70/138/65 68/135/64
f 69/139/52 59/140/54 71/141/66 70/138/65
f 59/142/54 72/143/56 73/144/67 71/141/66
f 72/145/56 62/146/58 74/147/68 73/144/67
f 62/148/58 51/149/60 64/150/62 74/147/68
f 53/151/45 52/152/59 64/153/62 66/154/61
f 55/155/46 53/151/45 66/154/61 67/156/63
f 57/157/49 55/155/46 67/156/63 68/158/64
f 58/159/51 57/157/49 68/158/64 70/160/65
f 60/161/53 58/159/51 70/160/65 71/162/66
f 61/163/55 60/161/53 71/162/66 73/164/67
f 63/165/57 61/163/55 73/164/67 74/166/68
f 52/152/59 63/165/57 74/166/68 64/153/62
f 52/167/59 53/110/45 65/113/48 51/168/60
f 25/58/22 26/51/18 17/169/7
