# Blender 4.0.2
# www.blender.org
o Side
v -33.500000 53.087009 -17.939335
v -24.500002 53.087009 -17.939335
v -33.500000 51.174519 -17.317928
v -24.500002 51.174519 -17.317928
v -33.500000 49.992535 -15.691065
v -24.500002 49.992531 -15.691065
v -33.500000 49.992535 -13.680152
v -24.500002 49.992531 -13.680152
v -33.500000 51.174519 -12.053288
v -24.500002 51.174519 -12.053288
v -33.500000 53.087009 -11.431883
v -24.500002 53.087009 -11.431883
v -33.500000 54.999504 -12.053288
v -24.500002 54.999500 -12.053288
v -33.500000 56.181488 -13.680152
v -24.500002 56.181488 -13.680152
v -33.500000 56.181488 -15.691065
v -24.500002 56.181488 -15.691065
v -33.500000 54.999504 -17.317928
v -24.500002 54.999500 -17.317928
v -33.000000 10.000000 26.589142
v -33.000000 50.004223 -16.687386
v -24.999998 10.000000 26.589142
v -24.999998 50.004223 -16.687386
v -33.000000 53.494930 7.130276
v -24.999998 53.494930 7.130276
v -33.000000 10.000000 -8.686543
v -24.999998 10.000000 -8.686543
v -33.000000 28.766315 29.402906
v -33.000000 36.320236 22.597139
v -33.000000 32.674179 28.925299
v -33.000000 35.439106 26.434216
v -24.999998 36.320236 22.597139
v -24.999998 28.766315 29.402906
v -24.999998 35.439106 26.434216
v -24.999998 32.674179 28.925299
v -24.999998 40.688972 8.738270
v -24.999998 35.951454 14.356213
v -24.999998 38.238396 9.718945
v -24.999998 36.504345 11.775253
v -33.000000 35.951454 14.356213
v -33.000000 40.688972 8.738270
v -33.000000 36.504345 11.775253
v -33.000000 38.238396 9.718945
v -30.999998 11.000000 4.170430
v -30.999998 11.000000 -3.829570
v -26.999998 11.000000 4.170430
v -26.999998 11.000000 -3.829570
v -30.999998 2.163656 5.990254
v -30.999998 2.163656 -2.009746
v -26.999998 2.163656 -2.009746
v -26.999998 2.163656 5.990254
v -33.000000 0.000000 -8.180176
v -33.000000 0.000000 11.819824
v -33.000000 0.900177 -8.180176
v -24.999998 0.000000 -8.180176
v -24.999998 0.900177 -8.180176
v -24.999998 0.000000 11.819824
v -24.999998 0.900177 11.819824
v -33.000000 0.900177 11.819824
v -33.000000 54.618690 29.094505
v -33.000000 61.604191 28.656015
v -33.000000 50.457111 -13.508048
v -33.000000 56.094753 -14.836984
v -25.000000 54.618690 29.094505
v -25.000000 61.604191 28.656015
v -25.000000 50.457111 -13.508048
v -25.000000 56.094753 -14.836984
v -33.000000 53.467201 7.061734
v -33.000000 60.023121 5.893794
v -25.000000 53.467201 7.061734
v -25.000000 60.023121 5.893794
v -33.000000 54.469681 17.871552
v -25.000000 61.196751 17.302816
v -33.000000 61.196751 17.302816
v -25.000000 54.469681 17.871552
v -33.000000 57.919350 -5.772784
v -25.000000 51.825333 -4.418653
v -33.000000 51.825333 -4.418653
v -25.000000 57.919350 -5.772784
v -29.000002 53.704567 27.463615
v -29.000002 62.104568 27.052752
v -26.723650 53.704567 27.916410
v -26.566420 62.104568 27.536821
v -24.793854 53.704567 29.205860
v -24.503330 62.104568 28.915335
v -23.504404 53.704567 31.135656
v -23.124817 62.104568 30.978426
v -23.051611 53.704567 33.412006
v -22.640747 62.104568 33.412006
v -23.504404 53.704567 35.688358
v -23.124817 62.104568 35.845589
v -24.793854 53.704567 37.618156
v -24.503330 62.104568 37.908680
v -26.723650 53.704567 38.907604
v -26.566420 62.104568 39.287193
v -29.000002 53.704567 39.360401
v -29.000002 62.104568 39.771263
v -31.276354 53.704567 38.907604
v -31.433584 62.104568 39.287193
v -33.206146 53.704567 37.618156
v -33.496674 62.104568 37.908680
v -34.495598 53.704567 35.688358
v -34.875191 62.104568 35.845589
v -34.948395 53.704567 33.412006
v -35.359261 62.104568 33.412006
v -34.495598 53.704567 31.135656
v -34.875191 62.104568 30.978426
v -33.206146 53.704567 29.205860
v -33.496674 62.104568 28.915335
v -31.276354 53.704567 27.916410
v -31.433584 62.104568 27.536821
v -29.000002 53.704571 29.447775
v -29.000002 62.104565 28.932968
v -27.482956 53.704571 29.749535
v -27.285948 62.104565 29.273914
v -26.196867 53.704571 30.608871
v -25.832844 62.104565 30.244848
v -25.337530 53.704571 31.894960
v -24.861910 62.104565 31.697952
v -25.035770 53.704571 33.412006
v -24.520964 62.104565 33.412006
v -25.337530 53.704571 34.929050
v -24.861910 62.104565 35.126060
v -26.196867 53.704571 36.215141
v -25.832844 62.104565 36.579163
v -27.482956 53.704571 37.074478
v -27.285948 62.104565 37.550098
v -29.000002 53.704571 37.376236
v -29.000002 62.104565 37.891045
v -30.517048 53.704571 37.074478
v -30.714056 62.104565 37.550098
v -31.803137 53.704571 36.215141
v -32.167160 62.104565 36.579163
v -32.662476 53.704571 34.929050
v -33.138092 62.104565 35.126060
v -32.964233 53.704571 33.412006
v -33.479042 62.104565 33.412006
v -32.662476 53.704571 31.894960
v -33.138092 62.104565 31.697952
v -31.803137 53.704571 30.608871
v -32.167160 62.104565 30.244848
v -30.517048 53.704571 29.749535
v -30.714056 62.104565 29.273914
vn -0.0000 -0.0000 -1.0000
vn -0.0000 -0.5878 -0.8090
vn -0.0000 -0.9511 -0.3090
vn -0.0000 -0.9511 0.3090
vn -0.0000 -0.5878 0.8090
vn -0.0000 -0.0000 1.0000
vn -0.0000 0.5878 0.8090
vn -0.0000 0.9511 0.3090
vn -0.0000 0.9511 -0.3090
vn 1.0000 -0.0000 -0.0000
vn -0.0000 0.5878 -0.8090
vn -1.0000 -0.0000 -0.0000
vn -0.0000 -0.7733 -0.6340
vn -0.0000 -0.1961 -0.9806
vn -0.0000 -1.0000 -0.0000
vn 0.7024 0.0887 0.7062
vn 0.7370 0.1691 0.6544
vn -0.0000 0.9894 -0.1450
vn 0.7370 0.6736 0.0561
vn 0.6780 0.7321 0.0664
vn 0.6452 0.6586 0.3873
vn 0.6452 0.3167 0.6953
vn 0.6780 -0.0100 0.7350
vn 0.7383 -0.1000 0.6670
vn -0.7024 0.0887 0.7062
vn -0.7370 0.1691 0.6544
vn -0.7370 0.6736 0.0561
vn -0.6780 0.7321 0.0664
vn -0.7383 -0.1000 0.6670
vn -0.6780 -0.0100 0.7350
vn -0.6452 0.3167 0.6953
vn -0.6452 0.6586 0.3873
vn 0.6564 0.4417 0.6116
vn 0.6564 0.6774 0.3321
vn -0.6564 0.4417 0.6116
vn -0.6564 0.6774 0.3321
vn -0.5015 0.7944 0.3426
vn -0.7487 0.1337 0.6493
vn -0.6567 -0.1521 -0.7387
vn -0.6021 0.7156 -0.3542
vn 0.6567 -0.1521 -0.7387
vn 0.6021 0.7156 -0.3542
vn 0.7487 0.1337 0.6493
vn 0.5015 0.7944 0.3426
vn 0.5952 0.5175 0.6147
vn 0.5940 0.5203 -0.6135
vn -0.5940 0.5203 -0.6135
vn -0.5952 0.5175 0.6147
vn 0.7071 -0.0000 0.7071
vn -0.7071 -0.0000 0.7071
vn 0.7071 -0.0000 -0.7071
vn -0.7071 -0.0000 -0.7071
vn -0.7048 0.6968 -0.1329
vn -0.6996 0.7005 -0.1410
vn 0.6987 0.7084 -0.1002
vn -0.6987 0.7084 -0.1002
vn -0.6997 0.7127 -0.0494
vn 0.6997 0.7127 -0.0494
vn 0.7161 -0.6970 0.0369
vn 0.7131 0.7006 -0.0251
vn 0.6957 -0.7183 0.0095
vn -0.7161 -0.6970 0.0369
vn -0.6957 -0.7183 0.0095
vn -0.7131 0.7006 -0.0251
vn 0.7048 0.6968 -0.1329
vn 0.8972 -0.4397 0.0408
vn -0.8972 -0.4397 0.0408
vn 0.6996 0.7005 -0.1410
vn -0.0000 -0.6836 -0.7298
vn -0.0000 0.6475 -0.7620
vn 0.2916 0.6475 -0.7040
vn 0.2793 -0.6836 -0.6743
vn 0.5388 0.6475 -0.5388
vn 0.5161 -0.6836 -0.5161
vn 0.7040 0.6475 -0.2916
vn 0.6743 -0.6836 -0.2793
vn 0.7620 0.6475 -0.0000
vn 0.7298 -0.6836 -0.0000
vn 0.7040 0.6475 0.2916
vn 0.6743 -0.6836 0.2793
vn 0.5388 0.6475 0.5388
vn 0.5161 -0.6836 0.5161
vn 0.2916 0.6475 0.7040
vn 0.2793 -0.6836 0.6743
vn -0.0000 0.6475 0.7620
vn -0.0000 -0.6836 0.7298
vn -0.2916 0.6475 0.7040
vn -0.2793 -0.6836 0.6743
vn -0.5388 0.6475 0.5388
vn -0.5161 -0.6836 0.5161
vn -0.7040 0.6475 0.2916
vn -0.6743 -0.6836 0.2793
vn -0.7620 0.6475 -0.0000
vn -0.7298 -0.6836 -0.0000
vn -0.7040 0.6475 -0.2916
vn -0.6743 -0.6836 -0.2793
vn -0.5388 0.6475 -0.5388
vn -0.5161 -0.6836 -0.5161
vn -0.2916 0.6475 -0.7040
vn -0.2793 -0.6836 -0.6743
vn -0.0000 -0.7335 0.6797
vn -0.2601 -0.7335 0.6280
vn -0.2427 0.7732 0.5859
vn -0.0000 0.7732 0.6342
vn -0.4806 -0.7335 0.4806
vn -0.4484 0.7732 0.4484
vn -0.6280 -0.7335 0.2601
vn -0.5859 0.7732 0.2427
vn -0.6797 -0.7335 -0.0000
vn -0.6342 0.7732 -0.0000
vn -0.6280 -0.7335 -0.2601
vn -0.5859 0.7732 -0.2427
vn -0.4806 -0.7335 -0.4806
vn -0.4484 0.7732 -0.4484
vn -0.2601 -0.7335 -0.6280
vn -0.2427 0.7732 -0.5859
vn -0.0000 -0.7335 -0.6797
vn -0.0000 0.7732 -0.6342
vn 0.2601 -0.7335 -0.6280
vn 0.2427 0.7732 -0.5859
vn 0.4806 -0.7335 -0.4806
vn 0.4484 0.7732 -0.4484
vn 0.6280 -0.7335 -0.2601
vn 0.5859 0.7732 -0.2427
vn 0.6797 -0.7335 -0.0000
vn 0.6342 0.7732 -0.0000
vn 0.6280 -0.7335 0.2601
vn 0.5859 0.7732 0.2427
vn 0.4806 -0.7335 0.4806
vn 0.4484 0.7732 0.4484
vn 0.2601 -0.7335 0.6280
vn 0.2427 0.7732 0.5859
vt 0.856371 0.520066
vt 0.938352 0.520066
vt 0.938352 0.538383
vt 0.856371 0.538384
vt 0.938352 0.556701
vt 0.856371 0.556701
vt 0.938352 0.575019
vt 0.856371 0.575019
vt 0.938352 0.593336
vt 0.856371 0.593336
vt 0.856371 0.410161
vt 0.938352 0.410161
vt 0.938352 0.428478
vt 0.856371 0.428478
vt 0.938352 0.446796
vt 0.856371 0.446796
vt 0.938352 0.465113
vt 0.856371 0.465113
vt 0.938352 0.483431
vt 0.856371 0.483431
vt 0.374700 0.890287
vt 0.392121 0.895947
vt 0.402887 0.910766
vt 0.402887 0.929084
vt 0.392121 0.943903
vt 0.374700 0.949563
vt 0.357279 0.943903
vt 0.346512 0.929084
vt 0.346512 0.910766
vt 0.357279 0.895947
vt 0.938352 0.501749
vt 0.856371 0.501749
vt 0.071292 0.840098
vt 0.071292 0.858415
vt 0.060525 0.873235
vt 0.043104 0.878895
vt 0.025683 0.873235
vt 0.014916 0.858415
vt 0.014916 0.840098
vt 0.025683 0.825279
vt 0.043104 0.819618
vt 0.060525 0.825279
vt 0.826538 0.410161
vt 0.826538 0.773006
vt 0.755386 0.773006
vt 0.755386 0.410161
vt 0.115901 0.520529
vt 0.187053 0.520529
vt 0.187053 0.834271
vt 0.115901 0.834271
vt 0.706740 0.060412
vt 0.725553 0.422769
vt 0.511455 0.422769
vt 0.513821 0.308002
vt 0.014916 0.575688
vt 0.086069 0.575688
vt 0.086069 0.789786
vt 0.014916 0.789786
vt 0.706740 0.060412
vt 0.470493 0.259067
vt 0.397497 0.251683
vt 0.364868 0.238981
vt 0.346512 0.211436
vt 0.347349 0.176431
vt 0.396314 0.014916
vt 0.086069 0.431064
vt 0.086069 0.545855
vt 0.014916 0.545855
vt 0.014916 0.431064
vt 0.014916 0.360189
vt 0.014916 0.286821
vt 0.086069 0.286821
vt 0.086069 0.360189
vt 0.513821 0.567368
vt 0.511455 0.452602
vt 0.725553 0.452602
vt 0.706740 0.814958
vt 0.396314 0.860454
vt 0.347349 0.698939
vt 0.346512 0.663934
vt 0.364867 0.636390
vt 0.397497 0.623687
vt 0.470493 0.616304
vt 0.706740 0.814958
vt 0.014916 0.251805
vt 0.086069 0.251805
vt 0.014916 0.218705
vt 0.086069 0.218705
vt 0.014916 0.183690
vt 0.086069 0.183690
vt 0.086069 0.014916
vt 0.014916 0.014916
vt 0.706740 0.060412
vt 0.508352 0.285173
vt 0.492493 0.267261
vt 0.014916 0.407588
vt 0.086069 0.407588
vt 0.014916 0.383665
vt 0.086069 0.383665
vt 0.929730 0.936686
vt 0.856371 0.921578
vt 0.856371 0.855162
vt 0.929730 0.870270
vt 0.867733 0.313669
vt 0.867733 0.238770
vt 0.900941 0.238770
vt 0.900941 0.313669
vt 0.883484 0.674396
vt 0.956844 0.659288
vt 0.956844 0.725704
vt 0.883484 0.740813
vt 0.771990 0.877738
vt 0.771990 0.802838
vt 0.805198 0.802838
vt 0.805198 0.877738
vt 0.863844 0.789210
vt 0.863844 0.623169
vt 0.949370 0.819043
vt 0.949370 0.985084
vt 0.755386 0.934732
vt 0.755386 0.927259
vt 0.821802 0.927259
vt 0.821802 0.934732
vt 0.856371 0.623169
vt 0.856371 0.789210
vt 0.851129 0.373432
vt 0.851129 0.365959
vt 0.917545 0.365959
vt 0.917545 0.373432
vt 0.956844 0.985084
vt 0.956844 0.819043
vt 0.133974 0.366736
vt 0.184644 0.368654
vt 0.184427 0.443578
vt 0.137080 0.441787
vt 0.248138 0.274352
vt 0.185042 0.274312
vt 0.184950 0.183385
vt 0.247686 0.183399
vt 0.303561 0.184834
vt 0.255878 0.086122
vt 0.315001 0.090113
vt 0.755387 0.275627
vt 0.821295 0.275627
vt 0.821296 0.368096
vt 0.755386 0.368096
vt 0.176615 0.086146
vt 0.256017 0.086144
vt 0.248979 0.368510
vt 0.299598 0.366374
vt 0.301421 0.272220
vt 0.129099 0.184975
vt 0.131670 0.272461
vt 0.706740 0.814958
vt 0.492493 0.608110
vt 0.508352 0.590198
vt 0.755387 0.186188
vt 0.821295 0.186188
vt 0.117589 0.090172
vt 0.176753 0.086122
vt 0.249494 0.443435
vt 0.296828 0.441437
vt 0.216886 0.529447
vt 0.274914 0.520529
vt 0.277382 0.537673
vt 0.219195 0.545484
vt 0.279523 0.554862
vt 0.221197 0.561562
vt 0.281336 0.572088
vt 0.222893 0.577675
vt 0.282820 0.589346
vt 0.224281 0.593818
vt 0.283974 0.606629
vt 0.225361 0.609984
vt 0.284800 0.623930
vt 0.226133 0.626168
vt 0.285295 0.641244
vt 0.226596 0.642363
vt 0.285460 0.658565
vt 0.226750 0.658565
vt 0.285295 0.675886
vt 0.226596 0.674766
vt 0.284799 0.693200
vt 0.226133 0.690962
vt 0.283974 0.710501
vt 0.225361 0.707146
vt 0.282820 0.727784
vt 0.224281 0.723312
vt 0.281336 0.745042
vt 0.222893 0.739455
vt 0.279523 0.762268
vt 0.221197 0.755568
vt 0.277382 0.779457
vt 0.219195 0.771646
vt 0.274914 0.796601
vt 0.216886 0.787683
vt 0.851129 0.197787
vt 0.853052 0.187162
vt 0.910983 0.196932
vt 0.908811 0.208937
vt 0.854720 0.176494
vt 0.912868 0.184878
vt 0.856134 0.165789
vt 0.914465 0.172783
vt 0.857291 0.155053
vt 0.915773 0.160654
vt 0.858192 0.144293
vt 0.916791 0.148496
vt 0.858836 0.133515
vt 0.917519 0.136318
vt 0.859223 0.122724
vt 0.917955 0.124126
vt 0.859352 0.111927
vt 0.918101 0.111927
vt 0.859223 0.101130
vt 0.917955 0.099728
vt 0.858836 0.090339
vt 0.917519 0.087535
vt 0.858192 0.079560
vt 0.916791 0.075357
vt 0.857291 0.068800
vt 0.915773 0.063200
vt 0.856134 0.058065
vt 0.914465 0.051070
vt 0.854720 0.047360
vt 0.912868 0.038975
vt 0.853052 0.036692
vt 0.910983 0.026921
vt 0.851129 0.026066
vt 0.908811 0.014916
vt 0.169396 0.939358
vt 0.154428 0.945558
vt 0.151725 0.931973
vt 0.161701 0.927841
vt 0.303966 0.861313
vt 0.303966 0.878635
vt 0.291093 0.876074
vt 0.291093 0.863874
vt 0.138225 0.945558
vt 0.140928 0.931973
vt 0.297338 0.845311
vt 0.286424 0.852603
vt 0.123256 0.939358
vt 0.130952 0.927841
vt 0.285090 0.833063
vt 0.277798 0.843976
vt 0.111800 0.927901
vt 0.123317 0.920206
vt 0.269087 0.826434
vt 0.266526 0.839307
vt 0.105599 0.912932
vt 0.119184 0.910230
vt 0.251766 0.826434
vt 0.254326 0.839307
vt 0.105599 0.896730
vt 0.119184 0.899432
vt 0.235763 0.833063
vt 0.243055 0.843976
vt 0.111800 0.881761
vt 0.123317 0.889456
vt 0.223515 0.845311
vt 0.234428 0.852603
vt 0.123256 0.870304
vt 0.130952 0.881821
vt 0.216886 0.861313
vt 0.229760 0.863874
vt 0.138225 0.864104
vt 0.140928 0.877689
vt 0.216886 0.878635
vt 0.229760 0.876074
vt 0.154428 0.864104
vt 0.151725 0.877689
vt 0.223515 0.894638
vt 0.234428 0.887345
vt 0.169396 0.870304
vt 0.161701 0.881821
vt 0.235763 0.906886
vt 0.243055 0.895972
vt 0.180853 0.881761
vt 0.169336 0.889456
vt 0.251766 0.913514
vt 0.254326 0.900641
vt 0.187053 0.896730
vt 0.173469 0.899432
vt 0.269087 0.913514
vt 0.266526 0.900641
vt 0.187053 0.912932
vt 0.173468 0.910230
vt 0.285090 0.906886
vt 0.277798 0.895972
vt 0.180853 0.927901
vt 0.169336 0.920206
vt 0.297338 0.894638
vt 0.286424 0.887345
s 1
f 1/1/1 2/2/1 4/3/2 3/4/2
f 3/4/2 4/3/2 6/5/3 5/6/3
f 5/6/3 6/5/3 8/7/4 7/8/4
f 7/8/4 8/7/4 10/9/5 9/10/5
f 9/11/5 10/12/5 12/13/6 11/14/6
f 11/14/6 12/13/6 14/15/7 13/16/7
f 13/16/7 14/15/7 16/17/8 15/18/8
f 15/18/8 16/17/8 18/19/9 17/20/9
f 4/21/10 2/22/10 20/23/10 18/24/10 16/25/10 14/26/10 12/27/10 10/28/10 8/29/10 6/30/10
f 17/20/9 18/19/9 20/31/11 19/32/11
f 19/32/11 20/31/11 2/2/1 1/1/1
f 1/33/12 3/34/12 5/35/12 7/36/12 9/37/12 11/38/12 13/39/12 15/40/12 17/41/12 19/42/12
f 27/43/13 22/44/14 24/45/14 28/46/13
f 27/47/13 28/48/13 23/49/15 21/50/15
f 28/51/10 24/52/10 26/53/16 37/54/17
f 24/55/18 22/56/18 25/57/18 26/58/18
f 28/59/10 38/60/19 33/61/20 35/62/21 36/63/22 34/64/23 23/65/24
f 37/66/17 26/67/16 25/68/25 42/69/26
f 41/70/27 30/71/28 33/72/20 38/73/19
f 42/74/26 25/75/25 22/76/12 27/77/12
f 21/78/29 29/79/30 31/80/31 32/81/32 30/82/28 41/83/27 27/84/12
f 33/72/20 30/71/28 32/85/32 35/86/21
f 35/86/21 32/85/32 31/87/31 36/88/22
f 36/88/22 31/87/31 29/89/30 34/90/23
f 23/91/24 34/90/23 29/89/30 21/92/29
f 28/93/10 37/54/17 39/94/33 40/95/34 38/60/19
f 37/66/17 42/69/26 44/96/35 39/97/33
f 39/97/33 44/96/35 43/98/36 40/99/34
f 40/99/34 43/98/36 41/70/27 38/73/19
f 49/100/37 45/101/38 46/102/39 50/103/40
f 50/104/40 46/105/39 48/106/41 51/107/42
f 51/108/42 48/109/41 47/110/43 52/111/44
f 52/112/44 47/113/43 45/114/38 49/115/37
f 51/108/42 52/111/44 59/116/45 57/117/46
f 49/100/37 50/103/40 55/118/47 60/119/48
f 58/120/49 59/121/45 60/122/48 54/123/50
f 56/124/51 57/117/46 59/116/45 58/125/49
f 53/126/52 55/127/47 57/128/46 56/129/51
f 54/130/50 60/119/48 55/118/47 53/131/52
f 50/104/40 51/107/42 57/128/46 55/127/47
f 52/112/44 49/115/37 60/122/48 59/121/45
f 79/132/12 77/133/53 64/134/54 63/135/12
f 72/136/55 70/137/56 75/138/57 74/139/58
f 76/140/59 74/139/58 66/141/60 65/142/61
f 73/143/62 76/144/59 65/145/61 61/146/63
f 74/139/58 75/138/57 62/147/64 66/148/60
f 80/149/65 77/133/53 70/137/56 72/136/55
f 78/150/10 80/149/65 72/136/55 71/151/66
f 73/152/62 75/138/57 70/137/56 69/153/67
f 27/154/12 41/83/27 43/155/36 44/156/35 42/74/26
f 69/157/67 71/158/66 76/144/59 73/143/62
f 61/159/63 62/160/64 75/138/57 73/152/62
f 71/151/66 72/136/55 74/139/58 76/140/59
f 68/161/68 64/134/54 77/133/53 80/149/65
f 67/162/10 68/161/68 80/149/65 78/150/10
f 69/153/67 70/137/56 77/133/53 79/132/12
f 81/163/69 82/164/70 84/165/71 83/166/72
f 83/166/72 84/165/71 86/167/73 85/168/74
f 85/168/74 86/167/73 88/169/75 87/170/76
f 87/170/76 88/169/75 90/171/77 89/172/78
f 89/172/78 90/171/77 92/173/79 91/174/80
f 91/174/80 92/173/79 94/175/81 93/176/82
f 93/176/82 94/175/81 96/177/83 95/178/84
f 95/178/84 96/177/83 98/179/85 97/180/86
f 97/180/86 98/179/85 100/181/87 99/182/88
f 99/182/88 100/181/87 102/183/89 101/184/90
f 101/184/90 102/183/89 104/185/91 103/186/92
f 103/186/92 104/185/91 106/187/93 105/188/94
f 105/188/94 106/187/93 108/189/95 107/190/96
f 107/190/96 108/189/95 110/191/97 109/192/98
f 109/192/98 110/191/97 112/193/99 111/194/100
f 111/194/100 112/193/99 82/195/70 81/196/69
f 113/197/101 115/198/102 116/199/103 114/200/104
f 115/198/102 117/201/105 118/202/106 116/199/103
f 117/201/105 119/203/107 120/204/108 118/202/106
f 119/203/107 121/205/109 122/206/110 120/204/108
f 121/205/109 123/207/111 124/208/112 122/206/110
f 123/207/111 125/209/113 126/210/114 124/208/112
f 125/209/113 127/211/115 128/212/116 126/210/114
f 127/211/115 129/213/117 130/214/118 128/212/116
f 129/213/117 131/215/119 132/216/120 130/214/118
f 131/215/119 133/217/121 134/218/122 132/216/120
f 133/217/121 135/219/123 136/220/124 134/218/122
f 135/219/123 137/221/125 138/222/126 136/220/124
f 137/221/125 139/223/127 140/224/128 138/222/126
f 139/223/127 141/225/129 142/226/130 140/224/128
f 141/225/129 143/227/131 144/228/132 142/226/130
f 143/227/131 113/229/101 114/230/104 144/228/132
f 81/231/69 83/232/72 115/233/102 113/234/101
f 84/235/71 82/236/70 114/237/104 116/238/103
f 83/232/72 85/239/74 117/240/105 115/233/102
f 86/241/73 84/235/71 116/238/103 118/242/106
f 85/239/74 87/243/76 119/244/107 117/240/105
f 88/245/75 86/241/73 118/242/106 120/246/108
f 87/243/76 89/247/78 121/248/109 119/244/107
f 90/249/77 88/245/75 120/246/108 122/250/110
f 89/247/78 91/251/80 123/252/111 121/248/109
f 92/253/79 90/249/77 122/250/110 124/254/112
f 91/251/80 93/255/82 125/256/113 123/252/111
f 94/257/81 92/253/79 124/254/112 126/258/114
f 93/255/82 95/259/84 127/260/115 125/256/113
f 96/261/83 94/257/81 126/258/114 128/262/116
f 95/259/84 97/263/86 129/264/117 127/260/115
f 98/265/85 96/261/83 128/262/116 130/266/118
f 97/263/86 99/267/88 131/268/119 129/264/117
f 100/269/87 98/265/85 130/266/118 132/270/120
f 99/267/88 101/271/90 133/272/121 131/268/119
f 102/273/89 100/269/87 132/270/120 134/274/122
f 101/271/90 103/275/92 135/276/123 133/272/121
f 104/277/91 102/273/89 134/274/122 136/278/124
f 103/275/92 105/279/94 137/280/125 135/276/123
f 106/281/93 104/277/91 136/278/124 138/282/126
f 105/279/94 107/283/96 139/284/127 137/280/125
f 108/285/95 106/281/93 138/282/126 140/286/128
f 107/283/96 109/287/98 141/288/129 139/284/127
f 110/289/97 108/285/95 140/286/128 142/290/130
f 109/287/98 111/291/100 143/292/131 141/288/129
f 112/293/99 110/289/97 142/290/130 144/294/132
f 111/291/100 81/231/69 113/234/101 143/292/131
f 82/236/70 112/293/99 144/294/132 114/237/104
