# Blender 4.0.2
# www.blender.org
o Seat
v -25.000000 108.988266 -13.513748
v -25.000000 109.060333 -23.422445
v 25.000000 108.988266 -13.513748
v 25.000000 109.060333 -23.422445
v -25.000000 85.992226 -10.913869
v -25.000000 86.024055 -23.102903
v 25.000000 86.024055 -23.102903
v 25.000000 85.992226 -10.913869
v 25.000000 10.327499 -8.493337
v -25.000000 10.327499 -8.493337
v -15.910993 111.954124 -23.422445
v 15.910993 111.954124 -23.422445
v -25.000000 10.367046 3.828445
v 25.000000 10.367046 3.828445
v 15.910993 111.952255 -13.797281
v -15.910993 111.952255 -13.797281
v -13.610349 85.954659 -10.932802
v -14.281238 86.024055 -25.513651
v 14.281238 86.024055 -25.513651
v 13.894799 109.841370 -8.158924
v -13.894799 109.841370 -8.158924
v 13.610349 85.954659 -10.932802
v -24.387981 21.062048 47.202320
v -23.740362 37.783592 48.649273
v -24.387981 20.607162 0.214407
v -23.740362 32.453632 -1.172245
v 24.172522 21.062048 47.202320
v 23.696066 37.783592 48.649273
v 24.172522 20.607162 0.214407
v 23.696066 32.453632 -1.172245
v -25.000000 32.613144 50.304047
v -25.000000 28.064011 -1.559970
v 25.085949 28.064011 -1.559970
v 25.085949 32.613144 50.304047
vn -0.7160 0.1055 0.6901
vn -0.6519 0.5041 0.5665
vn -0.8051 0.5932 0.0022
vn -1.0000 -0.0000 -0.0000
vn 0.3013 0.8567 0.4186
vn -0.3013 0.8567 0.4186
vn -0.4740 0.4183 0.7748
vn 0.4740 0.4183 0.7748
vn 1.0000 -0.0000 -0.0000
vn 0.8051 0.5932 0.0022
vn 0.6519 0.5041 0.5665
vn 0.7160 0.1055 0.6901
vn 0.0358 0.0918 0.9951
vn 0.0792 -0.0738 -0.9941
vn 0.0588 0.0577 -0.9966
vn 0.1253 0.0317 -0.9916
vn 0.1723 -0.0787 -0.9819
vn -0.0358 0.0918 0.9951
vn -0.1552 0.9879 0.0019
vn 0.6603 0.1439 0.7371
vn -0.6603 0.1439 0.7371
vn -0.0193 -0.2167 -0.9760
vn -0.0792 -0.0738 -0.9941
vn 0.0193 -0.2167 -0.9760
vn -0.1723 -0.0787 -0.9819
vn 0.1552 0.9879 0.0019
vn -0.0000 -1.0000 0.0032
vn -0.0588 0.0577 -0.9966
vn -0.1253 0.0317 -0.9916
vn -0.4999 0.7465 0.4391
vn -0.6449 0.7601 -0.0797
vn -0.9956 0.0935 -0.0106
vn -0.6794 0.0745 0.7300
vn 0.6843 0.0737 0.7255
vn -0.5714 -0.6558 0.4934
vn 0.5605 -0.6649 0.4937
vn 0.4907 0.7525 0.4392
vn 0.9959 0.0900 -0.0110
vn 0.6342 0.7690 -0.0805
vn 0.7154 -0.6986 0.0096
vn -0.7279 -0.6857 0.0086
vt 0.068564 0.467312
vt 0.068466 0.582920
vt 0.019892 0.589154
vt 0.007791 0.475939
vt 0.279238 0.597499
vt 0.112759 0.595913
vt 0.139694 0.574244
vt 0.252712 0.575317
vt 0.386498 0.479504
vt 0.372241 0.592508
vt 0.323778 0.585350
vt 0.325871 0.469731
vt 0.265343 0.469523
vt 0.458332 0.395596
vt 0.447998 0.525972
vt 0.402080 0.510407
vt 0.402800 0.394111
vt 0.129063 0.468241
vt 0.102191 0.646282
vt 0.053861 0.633671
vt 0.386498 0.088098
vt 0.325476 0.076416
vt 0.076301 0.074325
vt 0.015112 0.084857
vt 0.263061 0.471347
vt 0.131129 0.470211
vt 0.654208 0.007708
vt 0.600068 0.395305
vt 0.403067 0.008044
vt 0.323887 0.075521
vt 0.077724 0.073681
vt 0.654657 0.007807
vt 0.655589 0.393639
vt 0.288845 0.648065
vt 0.074784 0.008124
vt 0.328304 0.009324
vt 0.325396 0.072893
vt 0.076347 0.071393
vt 0.337414 0.636377
vt 0.402635 0.008133
vt 0.610883 0.525647
vt 0.656737 0.509913
vt 0.703981 0.313153
vt 0.982213 0.310433
vt 0.992209 0.336029
vt 0.697859 0.345606
vt 0.406307 0.883836
vt 0.405847 0.600817
vt 0.474350 0.607961
vt 0.473514 0.875522
vt 0.709297 0.041983
vt 0.708569 0.311647
vt 0.677145 0.320828
vt 0.678248 0.032045
vt 0.704756 0.040497
vt 0.698690 0.008033
vt 0.992209 0.018060
vt 0.982220 0.043838
vt 0.448357 0.941161
vt 0.468743 0.875950
vt 0.733241 0.879337
vt 0.742808 0.922086
vt 0.704207 0.312174
vt 0.704980 0.041454
vt 0.468864 0.876166
vt 0.469736 0.607301
vt 0.733208 0.604859
vt 0.449609 0.542588
vt 0.742808 0.562431
vt 0.469611 0.607500
s 1
f 5/1/1 1/2/2 2/3/3 6/4/4
f 15/5/5 16/6/6 21/7/7 20/8/8
f 7/9/9 4/10/10 3/11/11 8/12/12
f 15/5/5 22/13/13 8/12/12 3/11/11
f 19/14/14 12/15/15 4/16/16 7/17/17
f 17/18/18 16/6/6 1/2/2 5/1/1
f 11/19/19 2/20/3 1/2/2 16/6/6
f 9/21/9 7/9/9 8/12/12 14/22/20
f 13/23/21 5/1/1 6/4/4 10/24/4
f 13/23/21 17/18/18 5/1/1
f 22/25/13 20/8/8 21/7/7 17/26/18
f 10/27/22 18/28/23 19/14/14 9/29/24
f 8/12/12 22/13/13 14/22/20
f 14/30/20 22/13/13 17/18/18 13/31/21
f 10/32/22 6/33/25 18/28/23
f 12/34/26 11/19/19 16/6/6 15/5/5
f 10/35/27 9/36/27 14/37/27 13/38/27
f 4/39/10 12/34/26 15/5/5 3/11/11
f 9/40/24 19/14/14 7/17/17
f 22/13/13 15/5/5 20/8/8
f 18/28/23 11/41/28 12/15/15 19/14/14
f 16/6/6 17/18/18 21/7/7
f 6/33/25 2/42/29 11/41/28 18/28/23
f 24/43/30 26/44/31 32/45/32 31/46/33
f 34/47/34 31/48/33 23/49/35 27/50/36
f 28/51/37 24/52/30 31/53/33 34/54/34
f 28/55/37 34/56/34 33/57/38 30/58/39
f 34/59/34 27/60/36 29/61/40 33/62/38
f 26/44/31 24/63/30 28/64/37 30/58/39
f 29/61/40 27/65/36 23/66/35 25/67/41
f 31/68/33 32/69/32 25/67/41 23/70/35
