# Blender 4.0.2
# www.blender.org
o Seat
v -25.000000 110.862755 -13.513748
v 25.000000 110.862755 -13.513748
v 25.000000 10.327499 -8.493337
v -25.000000 10.327499 -8.493337
v -25.000000 110.934822 -23.422445
v 25.000000 110.934822 -23.422445
v -25.000000 10.367046 3.828445
v 25.000000 10.367046 3.828445
v 15.910993 111.952255 -13.797281
v -15.910993 111.952255 -13.797281
v -13.610349 85.954659 -10.932802
v -25.000000 86.024055 -25.498079
v 25.000000 86.024055 -25.498079
v 13.894799 109.841370 -8.158924
v -13.894799 109.841370 -8.158924
v 13.610349 85.954659 -10.932802
v -24.387981 21.062048 47.202320
v -23.740362 37.783592 48.649273
v -24.387981 20.607162 0.214407
v 24.172522 21.062048 47.202320
v 23.696066 37.783592 48.649273
v 24.172522 20.607162 0.214407
v -25.000000 32.613144 50.304047
v -23.740362 32.453632 -1.172245
v 23.696066 32.453632 -1.172245
v 25.085949 32.613144 50.304047
vn -0.6055 0.5711 0.5543
vn -0.5920 0.5787 -0.5609
vn -0.6746 -0.0508 -0.7365
vn 0.2217 0.8829 0.4138
vn -0.2217 0.8829 0.4138
vn -0.4740 0.4183 0.7748
vn 0.4740 0.4183 0.7748
vn 0.6746 -0.0508 -0.7365
vn 0.5920 0.5787 -0.5609
vn 0.6055 0.5711 0.5543
vn -0.0254 0.0974 0.9949
vn 0.0254 0.0974 0.9949
vn 0.7514 -0.1446 -0.6438
vn 0.6604 0.1424 0.7373
vn -0.6604 0.1424 0.7373
vn -0.7514 -0.1446 -0.6438
vn -0.0000 -1.0000 0.0032
vn -0.5064 0.7403 0.4422
vn -0.6978 0.7113 -0.0843
vn -0.6825 0.0831 0.7261
vn 0.6882 0.0845 0.7205
vn -0.5894 -0.6357 0.4985
vn 0.5820 -0.6417 0.4994
vn 0.4979 0.7458 0.4426
vn 0.7037 0.7053 -0.0859
vn 0.7235 -0.6903 -0.0036
vn -0.7308 -0.6826 -0.0027
vt 0.069588 0.592105
vt 0.021014 0.598338
vt -0.004081 0.477511
vt 0.279238 0.597499
vt 0.112759 0.595913
vt 0.139694 0.574244
vt 0.252712 0.575317
vt 0.398343 0.481301
vt 0.370944 0.601673
vt 0.322481 0.594515
vt 0.265343 0.469523
vt 0.323955 0.594424
vt 0.129063 0.468241
vt 0.068118 0.591989
vt 0.056765 0.634464
vt 0.071144 0.583647
vt 0.386498 0.088098
vt 0.398406 0.481463
vt 0.314913 0.596655
vt 0.325476 0.076416
vt 0.076301 0.074325
vt 0.077141 0.594336
vt -0.004146 0.477673
vt 0.015112 0.084857
vt 0.065823 0.594383
vt 0.263061 0.471347
vt 0.131129 0.470211
vt 0.654208 0.007708
vt 0.653637 0.395200
vt 0.404796 0.395668
vt 0.403067 0.008044
vt 0.326237 0.596913
vt 0.323887 0.075521
vt 0.077724 0.073681
vt 0.337678 0.648531
vt 0.053581 0.646078
vt 0.074784 0.008124
vt 0.328304 0.009324
vt 0.325396 0.072893
vt 0.076347 0.071393
vt 0.334495 0.637115
vt 0.321086 0.586025
vt 0.654449 0.395202
vt 0.656509 0.520464
vt 0.402319 0.520973
vt 0.404029 0.395711
vt 0.703981 0.313153
vt 0.982213 0.310433
vt 0.697859 0.345606
vt 0.406307 0.883836
vt 0.405847 0.600817
vt 0.474350 0.607961
vt 0.473514 0.875522
vt 0.709297 0.041983
vt 0.708569 0.311647
vt 0.677145 0.320828
vt 0.678248 0.032045
vt 0.704756 0.040497
vt 0.698690 0.008033
vt 0.982220 0.043838
vt 0.448357 0.941161
vt 0.468743 0.875950
vt 0.733241 0.879337
vt 0.740079 0.946021
vt 0.704207 0.312174
vt 0.704980 0.041454
vt 0.468864 0.876166
vt 0.469736 0.607301
vt 0.733208 0.604859
vt 0.449609 0.542588
vt 0.740163 0.538208
vt 0.469611 0.607500
s 1
f 1/1/1 5/2/2 12/3/3
f 9/4/4 10/5/5 15/6/6 14/7/7
f 13/8/8 6/9/9 2/10/10
f 9/4/4 16/11/11 2/12/10
f 11/13/12 10/5/5 1/14/1
f 5/15/2 1/16/1 10/5/5
f 3/17/13 13/18/8 2/19/10 8/20/14
f 7/21/15 1/22/1 12/23/3 4/24/16
f 7/21/15 11/13/12 1/25/1
f 16/26/11 14/7/7 15/6/6 11/27/12
f 4/28/16 12/29/3 13/30/8 3/31/13
f 2/32/10 16/11/11 8/20/14
f 8/33/14 16/11/11 11/13/12 7/34/15
f 6/35/9 5/36/2 10/5/5 9/4/4
f 4/37/17 3/38/17 8/39/17 7/40/17
f 6/41/9 9/4/4 2/42/10
f 16/11/11 9/4/4 14/7/7
f 12/43/3 5/44/2 6/45/9 13/46/8
f 10/5/5 11/13/12 15/6/6
f 18/47/18 24/48/19 23/49/20
f 26/50/21 23/51/20 17/52/22 20/53/23
f 21/54/24 18/55/18 23/56/20 26/57/21
f 21/58/24 26/59/21 25/60/25
f 26/61/21 20/62/23 22/63/26 25/64/25
f 24/48/19 18/65/18 21/66/24 25/60/25
f 22/63/26 20/67/23 17/68/22 19/69/27
f 23/70/20 24/71/19 19/69/27 17/72/22
