# Blender 4.0.2
# www.blender.org
o Side
v -33.500000 53.087009 -17.939335
v -24.500002 53.087009 -17.939335
v -33.500000 51.174519 -17.317928
v -24.500002 51.174519 -17.317928
v -33.500000 49.992535 -15.691065
v -24.500002 49.992531 -15.691065
v -33.500000 49.992535 -13.680152
v -24.500002 49.992531 -13.680152
v -33.500000 51.174519 -12.053288
v -24.500002 51.174519 -12.053288
v -33.500000 53.087009 -11.431883
v -24.500002 53.087009 -11.431883
v -33.500000 54.999504 -12.053288
v -24.500002 54.999500 -12.053288
v -33.500000 56.181488 -13.680152
v -24.500002 56.181488 -13.680152
v -33.500000 56.181488 -15.691065
v -24.500002 56.181488 -15.691065
v -33.500000 54.999504 -17.317928
v -24.500002 54.999500 -17.317928
v -33.000000 10.000000 26.589142
v -33.000000 10.000000 -8.686543
v -33.000000 50.004223 -16.687386
v -24.999998 10.000000 26.589142
v -24.999998 10.000000 -8.686543
v -24.999998 50.004223 -16.687386
v -33.000000 10.000000 7.313457
v -33.000000 53.494930 7.130276
v -24.999998 10.000000 7.313457
v -24.999998 53.494930 7.130276
v -33.000000 35.000000 -13.686543
v -24.999998 35.000000 -13.686543
v -33.000000 28.766315 29.402906
v -33.000000 36.320236 22.597139
v -33.000000 32.674179 28.925299
v -33.000000 35.439106 26.434216
v -24.999998 36.320236 22.597139
v -24.999998 28.766315 29.402906
v -24.999998 35.439106 26.434216
v -24.999998 32.674179 28.925299
v -24.999998 40.688972 8.738270
v -24.999998 35.951454 14.356213
v -24.999998 30.743690 8.964502
v -24.999998 35.570091 4.363703
v -24.999998 38.238396 9.718945
v -24.999998 36.504345 11.775253
v -33.000000 35.951454 14.356213
v -33.000000 40.688972 8.738270
v -33.000000 35.570091 4.363703
v -33.000000 30.743690 8.964502
v -33.000000 36.504345 11.775253
v -33.000000 38.238396 9.718945
v -30.999998 11.000000 4.170430
v -30.999998 11.000000 -3.829570
v -26.999998 11.000000 4.170430
v -26.999998 11.000000 -3.829570
v -30.999998 2.163656 5.990254
v -30.999998 2.163656 -2.009746
v -26.999998 2.163656 -2.009746
v -26.999998 2.163656 5.990254
v -33.000000 0.000000 -8.180176
v -33.000000 0.000000 11.819824
v -33.000000 0.900177 -8.180176
v -24.999998 0.000000 -8.180176
v -24.999998 0.900177 -8.180176
v -24.999998 0.000000 11.819824
v -24.999998 0.900177 11.819824
v -33.000000 0.900177 11.819824
v -33.000000 54.618690 30.579340
v -33.000000 61.604191 30.465605
v -33.000000 50.457111 -13.508048
v -33.000000 56.094753 -14.836984
v -25.000000 54.618690 30.579340
v -25.000000 61.604191 30.465605
v -25.000000 50.457111 -13.508048
v -25.000000 56.094753 -14.836984
v -33.000000 53.467201 7.061734
v -33.000000 60.023121 5.893794
v -25.000000 53.467201 7.061734
v -25.000000 60.023121 5.893794
v -29.000002 50.457111 -13.508049
v -29.000002 56.094753 -14.836985
v -29.000002 54.618690 28.067980
v -29.000002 61.604191 27.954245
v -29.000002 60.023121 5.893794
v -29.000002 53.467201 7.061734
v -33.000000 54.469681 17.871552
v -25.000000 61.196751 17.302816
v -33.000000 61.196751 17.302816
v -25.000000 54.469681 17.871552
v -29.000002 61.196751 17.302816
v -29.000002 54.469681 17.871552
v -33.000000 57.919350 -5.772784
v -25.000000 51.825333 -4.418653
v -33.000000 51.825333 -4.418653
v -25.000000 57.919350 -5.772784
v -29.000002 51.825333 -4.418652
v -29.000002 57.919350 -5.772785
v -29.000002 53.704567 27.463615
v -29.000002 62.104568 27.052752
v -26.723650 53.704567 27.916410
v -26.566420 62.104568 27.536821
v -24.793854 53.704567 29.205860
v -24.503330 62.104568 28.915335
v -23.504404 53.704567 31.135656
v -23.124817 62.104568 30.978426
v -23.051611 53.704567 33.412006
v -22.640747 62.104568 33.412006
v -23.504404 53.704567 35.688358
v -23.124817 62.104568 35.845589
v -24.793854 53.704567 37.618156
v -24.503330 62.104568 37.908680
v -26.723650 53.704567 38.907604
v -26.566420 62.104568 39.287193
v -29.000002 53.704567 39.360401
v -29.000002 62.104568 39.771263
v -31.276354 53.704567 38.907604
v -31.433584 62.104568 39.287193
v -33.206146 53.704567 37.618156
v -33.496674 62.104568 37.908680
v -34.495598 53.704567 35.688358
v -34.875191 62.104568 35.845589
v -34.948395 53.704567 33.412006
v -35.359261 62.104568 33.412006
v -34.495598 53.704567 31.135656
v -34.875191 62.104568 30.978426
v -33.206146 53.704567 29.205860
v -33.496674 62.104568 28.915335
v -31.276354 53.704567 27.916410
v -31.433584 62.104568 27.536821
v -29.000002 53.704571 29.447775
v -29.000002 62.104565 28.932968
v -27.482956 53.704571 29.749535
v -27.285948 62.104565 29.273914
v -26.196867 53.704571 30.608871
v -25.832844 62.104565 30.244848
v -25.337530 53.704571 31.894960
v -24.861910 62.104565 31.697952
v -25.035770 53.704571 33.412006
v -24.520964 62.104565 33.412006
v -25.337530 53.704571 34.929050
v -24.861910 62.104565 35.126060
v -26.196867 53.704571 36.215141
v -25.832844 62.104565 36.579163
v -27.482956 53.704571 37.074478
v -27.285948 62.104565 37.550098
v -29.000002 53.704571 37.376236
v -29.000002 62.104565 37.891045
v -30.517048 53.704571 37.074478
v -30.714056 62.104565 37.550098
v -31.803137 53.704571 36.215141
v -32.167160 62.104565 36.579163
v -32.662476 53.704571 34.929050
v -33.138092 62.104565 35.126060
v -32.964233 53.704571 33.412006
v -33.479042 62.104565 33.412006
v -32.662476 53.704571 31.894960
v -33.138092 62.104565 31.697952
v -31.803137 53.704571 30.608871
v -32.167160 62.104565 30.244848
v -30.517048 53.704571 29.749535
v -30.714056 62.104565 29.273914
vn -0.0000 -0.0000 -1.0000
vn -0.0000 -0.5878 -0.8090
vn -0.0000 -0.9511 -0.3090
vn -0.0000 -0.9511 0.3090
vn -0.0000 -0.5878 0.8090
vn -0.0000 -0.0000 1.0000
vn -0.0000 0.5878 0.8090
vn -0.0000 0.9511 0.3090
vn -0.0000 0.9511 -0.3090
vn 1.0000 -0.0000 -0.0000
vn -0.0000 0.5878 -0.8090
vn -1.0000 -0.0000 -0.0000
vn -0.0000 -0.1961 -0.9806
vn -0.0000 -1.0000 -0.0000
vn 0.7024 0.0887 0.7062
vn 0.7370 0.1691 0.6544
vn -0.0000 0.9894 -0.1450
vn 0.7370 0.6736 0.0561
vn 0.6780 0.7321 0.0664
vn 0.6452 0.6586 0.3873
vn 0.6452 0.3167 0.6953
vn 0.6780 -0.0100 0.7350
vn 0.7383 -0.1000 0.6670
vn -0.7024 0.0887 0.7062
vn -0.7370 0.1691 0.6544
vn -0.7370 0.6736 0.0561
vn -0.6780 0.7321 0.0664
vn -0.7383 -0.1000 0.6670
vn -0.6780 -0.0100 0.7350
vn -0.6452 0.3167 0.6953
vn -0.6452 0.6586 0.3873
vn 0.6564 0.4417 0.6116
vn 0.6564 0.6774 0.3321
vn -0.6564 0.6774 0.3321
vn -0.6564 0.4417 0.6116
vn -0.5015 0.7944 0.3426
vn -0.7487 0.1337 0.6493
vn -0.6567 -0.1521 -0.7387
vn -0.6021 0.7156 -0.3542
vn 0.6567 -0.1521 -0.7387
vn 0.6021 0.7156 -0.3542
vn 0.7487 0.1337 0.6493
vn 0.5015 0.7944 0.3426
vn 0.5952 0.5175 0.6147
vn 0.5940 0.5203 -0.6135
vn -0.5940 0.5203 -0.6135
vn -0.5952 0.5175 0.6147
vn 0.7071 -0.0000 0.7071
vn -0.7071 -0.0000 0.7071
vn 0.7071 -0.0000 -0.7071
vn -0.7071 -0.0000 -0.7071
vn -0.7079 -0.6988 0.1026
vn -0.7048 0.6968 -0.1329
vn -0.6996 0.7005 -0.1410
vn -0.7249 -0.6812 0.1025
vn -0.0000 -0.2294 -0.9733
vn 0.7156 -0.6975 0.0368
vn 0.7011 0.7114 -0.0487
vn 0.8404 0.5416 -0.0185
vn 0.8397 -0.5430 0.0071
vn -0.0000 0.0163 0.9999
vn 0.5317 0.0138 0.8468
vn -0.0000 -0.9986 0.0527
vn -0.0000 -0.9999 0.0130
vn -0.0000 0.9977 -0.0683
vn -0.7011 0.7114 -0.0487
vn -0.8404 0.5416 -0.0185
vn -0.0000 0.9994 -0.0342
vn -0.0000 0.9823 -0.1874
vn -0.6987 0.7084 -0.1002
vn -0.0000 0.9902 -0.1400
vn -0.0000 -0.9894 0.1452
vn 0.7079 -0.6988 0.1026
vn 0.7127 -0.6966 0.0821
vn -0.0000 -0.9931 0.1170
vn 0.7048 0.6968 -0.1329
vn 0.6987 0.7084 -0.1002
vn -0.7156 -0.6975 0.0368
vn -0.7127 -0.6966 0.0821
vn -0.8397 -0.5430 0.0071
vn -0.5317 0.0138 0.8468
vn 0.6996 0.7005 -0.1410
vn -0.0000 0.9803 -0.1973
vn -0.0000 -0.9889 0.1489
vn 0.7249 -0.6812 0.1025
vn -0.0000 -0.6836 -0.7298
vn -0.0000 0.6475 -0.7620
vn 0.2916 0.6475 -0.7040
vn 0.2793 -0.6836 -0.6743
vn 0.5388 0.6475 -0.5388
vn 0.5161 -0.6836 -0.5161
vn 0.7040 0.6475 -0.2916
vn 0.6743 -0.6836 -0.2793
vn 0.7620 0.6475 -0.0000
vn 0.7298 -0.6836 -0.0000
vn 0.7040 0.6475 0.2916
vn 0.6743 -0.6836 0.2793
vn 0.5388 0.6475 0.5388
vn 0.5161 -0.6836 0.5161
vn 0.2916 0.6475 0.7040
vn 0.2793 -0.6836 0.6743
vn -0.0000 0.6475 0.7620
vn -0.0000 -0.6836 0.7298
vn -0.2916 0.6475 0.7040
vn -0.2793 -0.6836 0.6743
vn -0.5388 0.6475 0.5388
vn -0.5161 -0.6836 0.5161
vn -0.7040 0.6475 0.2916
vn -0.6743 -0.6836 0.2793
vn -0.7620 0.6475 -0.0000
vn -0.7298 -0.6836 -0.0000
vn -0.7040 0.6475 -0.2916
vn -0.6743 -0.6836 -0.2793
vn -0.5388 0.6475 -0.5388
vn -0.5161 -0.6836 -0.5161
vn -0.2916 0.6475 -0.7040
vn -0.2793 -0.6836 -0.6743
vn -0.0000 -0.7335 0.6797
vn -0.2601 -0.7335 0.6280
vn -0.2427 0.7732 0.5859
vn -0.0000 0.7732 0.6342
vn -0.4806 -0.7335 0.4806
vn -0.4484 0.7732 0.4484
vn -0.6280 -0.7335 0.2601
vn -0.5859 0.7732 0.2427
vn -0.6797 -0.7335 -0.0000
vn -0.6342 0.7732 -0.0000
vn -0.6280 -0.7335 -0.2601
vn -0.5859 0.7732 -0.2427
vn -0.4806 -0.7335 -0.4806
vn -0.4484 0.7732 -0.4484
vn -0.2601 -0.7335 -0.6280
vn -0.2427 0.7732 -0.5859
vn -0.0000 -0.7335 -0.6797
vn -0.0000 0.7732 -0.6342
vn 0.2601 -0.7335 -0.6280
vn 0.2427 0.7732 -0.5859
vn 0.4806 -0.7335 -0.4806
vn 0.4484 0.7732 -0.4484
vn 0.6280 -0.7335 -0.2601
vn 0.5859 0.7732 -0.2427
vn 0.6797 -0.7335 -0.0000
vn 0.6342 0.7732 -0.0000
vn 0.6280 -0.7335 0.2601
vn 0.5859 0.7732 0.2427
vn 0.4806 -0.7335 0.4806
vn 0.4484 0.7732 0.4484
vn 0.2601 -0.7335 0.6280
vn 0.2427 0.7732 0.5859
vt 0.856371 0.520066
vt 0.938352 0.520066
vt 0.938352 0.538383
vt 0.856371 0.538384
vt 0.938352 0.556701
vt 0.856371 0.556701
vt 0.938352 0.575019
vt 0.856371 0.575019
vt 0.938352 0.593336
vt 0.856371 0.593336
vt 0.856371 0.410161
vt 0.938352 0.410161
vt 0.938352 0.428478
vt 0.856371 0.428478
vt 0.938352 0.446796
vt 0.856371 0.446796
vt 0.938352 0.465113
vt 0.856371 0.465113
vt 0.938352 0.483431
vt 0.856371 0.483431
vt 0.374700 0.890287
vt 0.392121 0.895947
vt 0.402887 0.910766
vt 0.402887 0.929084
vt 0.392121 0.943903
vt 0.374700 0.949563
vt 0.357279 0.943903
vt 0.346512 0.929084
vt 0.346512 0.910766
vt 0.357279 0.895947
vt 0.938352 0.501749
vt 0.856371 0.501749
vt 0.071292 0.840098
vt 0.071292 0.858415
vt 0.060525 0.873235
vt 0.043104 0.878895
vt 0.025683 0.873235
vt 0.014916 0.858415
vt 0.014916 0.840098
vt 0.025683 0.825279
vt 0.043104 0.819618
vt 0.060525 0.825279
vt 0.826538 0.636915
vt 0.826538 0.773006
vt 0.755386 0.773006
vt 0.755386 0.636915
vt 0.565940 0.835594
vt 0.524657 0.655178
vt 0.558919 0.606772
vt 0.718497 0.588509
vt 0.706740 0.814958
vt 0.115901 0.662833
vt 0.187053 0.662833
vt 0.187053 0.834271
vt 0.115901 0.834271
vt 0.718497 0.286861
vt 0.725553 0.422769
vt 0.511455 0.422769
vt 0.513821 0.308002
vt 0.558919 0.268598
vt 0.014916 0.575688
vt 0.086069 0.575688
vt 0.086069 0.789786
vt 0.014916 0.789786
vt 0.115901 0.520529
vt 0.187053 0.520529
vt 0.565940 0.039777
vt 0.524657 0.220192
vt 0.470493 0.259067
vt 0.397497 0.251683
vt 0.364868 0.238981
vt 0.346512 0.211436
vt 0.347349 0.176431
vt 0.396314 0.014916
vt 0.086069 0.431064
vt 0.086069 0.545855
vt 0.014916 0.545855
vt 0.014916 0.431064
vt 0.014916 0.360189
vt 0.014916 0.286821
vt 0.086069 0.286821
vt 0.086069 0.360189
vt 0.513821 0.567368
vt 0.511455 0.452602
vt 0.725553 0.452602
vt 0.826538 0.410161
vt 0.755386 0.410161
vt 0.396314 0.860454
vt 0.347349 0.698939
vt 0.346512 0.663934
vt 0.364867 0.636390
vt 0.397497 0.623687
vt 0.470493 0.616304
vt 0.014916 0.251805
vt 0.086069 0.251805
vt 0.014916 0.218705
vt 0.086069 0.218705
vt 0.014916 0.183690
vt 0.086069 0.183690
vt 0.086069 0.014916
vt 0.014916 0.014916
vt 0.508352 0.285173
vt 0.492493 0.267261
vt 0.492493 0.608110
vt 0.508352 0.590198
vt 0.014916 0.407588
vt 0.086069 0.407588
vt 0.014916 0.383665
vt 0.086069 0.383665
vt 0.706740 0.060412
vt 0.929730 0.936686
vt 0.856371 0.921578
vt 0.856371 0.855162
vt 0.929730 0.870270
vt 0.867733 0.313669
vt 0.867733 0.238770
vt 0.900941 0.238770
vt 0.900941 0.313669
vt 0.883484 0.674396
vt 0.956844 0.659288
vt 0.956844 0.725704
vt 0.883484 0.740813
vt 0.771990 0.877738
vt 0.771990 0.802838
vt 0.805198 0.802838
vt 0.805198 0.877738
vt 0.863844 0.789210
vt 0.863844 0.623169
vt 0.949370 0.819043
vt 0.949370 0.985084
vt 0.755386 0.934732
vt 0.755386 0.927259
vt 0.821802 0.927259
vt 0.821802 0.934732
vt 0.856371 0.623169
vt 0.856371 0.789210
vt 0.851129 0.373432
vt 0.851129 0.365959
vt 0.917545 0.365959
vt 0.917545 0.373432
vt 0.956844 0.985084
vt 0.956844 0.819043
vt 0.133974 0.366736
vt 0.184644 0.368654
vt 0.184427 0.443578
vt 0.137080 0.441787
vt 0.217057 0.490634
vt 0.216954 0.443526
vt 0.249494 0.443435
vt 0.249601 0.490560
vt 0.303561 0.184834
vt 0.247686 0.183399
vt 0.257697 0.070659
vt 0.316679 0.077602
vt 0.216317 0.017757
vt 0.216325 0.081474
vt 0.174934 0.070664
vt 0.178653 0.014916
vt 0.788341 0.275627
vt 0.821295 0.275627
vt 0.821296 0.380328
vt 0.788341 0.359640
vt 0.216432 0.182880
vt 0.184950 0.183385
vt 0.216742 0.368691
vt 0.185042 0.274312
vt 0.216557 0.274330
vt 0.788341 0.090644
vt 0.821295 0.090644
vt 0.821295 0.186188
vt 0.788341 0.186188
vt 0.299598 0.366374
vt 0.248979 0.368510
vt 0.248138 0.274352
vt 0.301421 0.272220
vt 0.129099 0.184975
vt 0.131670 0.272461
vt 0.755387 0.090644
vt 0.755387 0.186188
vt 0.755387 0.275627
vt 0.755386 0.380328
vt 0.253978 0.014916
vt 0.184517 0.490696
vt 0.115901 0.077651
vt 0.755387 0.014916
vt 0.788341 0.014916
vt 0.296828 0.441437
vt 0.821295 0.014916
vt 0.216886 0.529447
vt 0.274914 0.520529
vt 0.277382 0.537673
vt 0.219195 0.545484
vt 0.279523 0.554862
vt 0.221197 0.561562
vt 0.281336 0.572088
vt 0.222893 0.577675
vt 0.282820 0.589346
vt 0.224281 0.593818
vt 0.283974 0.606629
vt 0.225361 0.609984
vt 0.284800 0.623930
vt 0.226133 0.626168
vt 0.285295 0.641244
vt 0.226596 0.642363
vt 0.285460 0.658565
vt 0.226750 0.658565
vt 0.285295 0.675886
vt 0.226596 0.674766
vt 0.284799 0.693200
vt 0.226133 0.690962
vt 0.283974 0.710501
vt 0.225361 0.707146
vt 0.282820 0.727784
vt 0.224281 0.723312
vt 0.281336 0.745042
vt 0.222893 0.739455
vt 0.279523 0.762268
vt 0.221197 0.755568
vt 0.277382 0.779457
vt 0.219195 0.771646
vt 0.274914 0.796601
vt 0.216886 0.787683
vt 0.851129 0.197787
vt 0.853052 0.187162
vt 0.910983 0.196932
vt 0.908811 0.208937
vt 0.854720 0.176494
vt 0.912868 0.184878
vt 0.856134 0.165789
vt 0.914465 0.172783
vt 0.857291 0.155053
vt 0.915773 0.160654
vt 0.858192 0.144293
vt 0.916791 0.148496
vt 0.858836 0.133515
vt 0.917519 0.136318
vt 0.859223 0.122724
vt 0.917955 0.124126
vt 0.859352 0.111927
vt 0.918101 0.111927
vt 0.859223 0.101130
vt 0.917955 0.099728
vt 0.858836 0.090339
vt 0.917519 0.087535
vt 0.858192 0.079560
vt 0.916791 0.075357
vt 0.857291 0.068800
vt 0.915773 0.063200
vt 0.856134 0.058065
vt 0.914465 0.051070
vt 0.854720 0.047360
vt 0.912868 0.038975
vt 0.853052 0.036692
vt 0.910983 0.026921
vt 0.851129 0.026066
vt 0.908811 0.014916
vt 0.169396 0.939358
vt 0.154428 0.945558
vt 0.151725 0.931973
vt 0.161701 0.927841
vt 0.303966 0.861313
vt 0.303966 0.878635
vt 0.291093 0.876074
vt 0.291093 0.863874
vt 0.138225 0.945558
vt 0.140928 0.931973
vt 0.297338 0.845311
vt 0.286424 0.852603
vt 0.123256 0.939358
vt 0.130952 0.927841
vt 0.285090 0.833063
vt 0.277798 0.843976
vt 0.111800 0.927901
vt 0.123317 0.920206
vt 0.269087 0.826434
vt 0.266526 0.839307
vt 0.105599 0.912932
vt 0.119184 0.910230
vt 0.251766 0.826434
vt 0.254326 0.839307
vt 0.105599 0.896730
vt 0.119184 0.899432
vt 0.235763 0.833063
vt 0.243055 0.843976
vt 0.111800 0.881761
vt 0.123317 0.889456
vt 0.223515 0.845311
vt 0.234428 0.852603
vt 0.123256 0.870304
vt 0.130952 0.881821
vt 0.216886 0.861313
vt 0.229760 0.863874
vt 0.138225 0.864104
vt 0.140928 0.877689
vt 0.216886 0.878635
vt 0.229760 0.876074
vt 0.154428 0.864104
vt 0.151725 0.877689
vt 0.223515 0.894638
vt 0.234428 0.887345
vt 0.169396 0.870304
vt 0.161701 0.881821
vt 0.235763 0.906886
vt 0.243055 0.895972
vt 0.180853 0.881761
vt 0.169336 0.889456
vt 0.251766 0.913514
vt 0.254326 0.900641
vt 0.187053 0.896730
vt 0.173469 0.899432
vt 0.269087 0.913514
vt 0.266526 0.900641
vt 0.187053 0.912932
vt 0.173468 0.910230
vt 0.285090 0.906886
vt 0.277798 0.895972
vt 0.180853 0.927901
vt 0.169336 0.920206
vt 0.297338 0.894638
vt 0.286424 0.887345
s 1
f 1/1/1 2/2/1 4/3/2 3/4/2
f 3/4/2 4/3/2 6/5/3 5/6/3
f 5/6/3 6/5/3 8/7/4 7/8/4
f 7/8/4 8/7/4 10/9/5 9/10/5
f 9/11/5 10/12/5 12/13/6 11/14/6
f 11/14/6 12/13/6 14/15/7 13/16/7
f 13/16/7 14/15/7 16/17/8 15/18/8
f 15/18/8 16/17/8 18/19/9 17/20/9
f 4/21/10 2/22/10 20/23/10 18/24/10 16/25/10 14/26/10 12/27/10 10/28/10 8/29/10 6/30/10
f 17/20/9 18/19/9 20/31/11 19/32/11
f 19/32/11 20/31/11 2/2/1 1/1/1
f 1/33/12 3/34/12 5/35/12 7/36/12 9/37/12 11/38/12 13/39/12 15/40/12 17/41/12 19/42/12
f 31/43/13 23/44/13 26/45/13 32/46/13
f 27/47/12 50/48/12 49/49/12 31/50/12 22/51/12
f 27/52/14 29/53/14 24/54/14 21/55/14
f 32/56/10 26/57/10 30/58/15 41/59/16 44/60/10
f 26/61/17 23/62/17 28/63/17 30/64/17
f 22/65/14 25/66/14 29/53/14 27/52/14
f 29/67/10 43/68/10 42/69/18 37/70/19 39/71/20 40/72/21 38/73/22 24/74/23
f 41/75/16 30/76/15 28/77/24 48/78/25
f 47/79/26 34/80/27 37/81/19 42/82/18
f 49/49/12 48/83/25 28/84/24 23/85/12 31/50/12
f 22/86/13 31/43/13 32/46/13 25/87/13
f 21/88/28 33/89/29 35/90/30 36/91/31 34/92/27 47/93/26 50/48/12 27/47/12
f 37/81/19 34/80/27 36/94/31 39/95/20
f 39/95/20 36/94/31 35/96/30 40/97/21
f 40/97/21 35/96/30 33/98/29 38/99/22
f 24/100/23 38/99/22 33/98/29 21/101/28
f 41/59/16 45/102/32 46/103/33 42/69/18 43/68/10 44/60/10
f 47/93/26 51/104/34 52/105/35 48/83/25 49/49/12 50/48/12
f 41/75/16 48/78/25 52/106/35 45/107/32
f 45/107/32 52/106/35 51/108/34 46/109/33
f 46/109/33 51/108/34 47/79/26 42/82/18
f 25/110/10 32/56/10 44/60/10 43/68/10 29/67/10
f 57/111/36 53/112/37 54/113/38 58/114/39
f 58/115/39 54/116/38 56/117/40 59/118/41
f 59/119/41 56/120/40 55/121/42 60/122/43
f 60/123/43 55/124/42 53/125/37 57/126/36
f 59/119/41 60/122/43 67/127/44 65/128/45
f 57/111/36 58/114/39 63/129/46 68/130/47
f 66/131/48 67/132/44 68/133/47 62/134/49
f 64/135/50 65/128/45 67/127/44 66/136/48
f 61/137/51 63/138/46 65/139/45 64/140/50
f 62/141/49 68/130/47 63/129/46 61/142/51
f 58/115/39 59/118/41 65/139/45 63/138/46
f 60/123/43 57/126/36 68/133/47 67/132/44
f 95/143/52 93/144/53 72/145/54 71/146/55
f 81/147/56 82/148/56 76/149/56 75/150/56
f 90/151/57 88/152/58 74/153/59 73/154/60
f 83/155/61 84/156/61 70/157/62 69/158/62
f 92/159/63 90/160/57 73/161/60 83/162/64
f 91/163/65 89/164/66 70/157/67 84/156/68
f 98/165/69 93/144/53 78/166/70 85/167/71
f 97/168/72 94/169/73 79/170/74 86/171/75
f 94/172/73 96/173/76 80/174/77 79/175/74
f 87/176/78 89/164/66 78/166/70 77/177/79
f 95/178/52 97/168/72 86/171/75 77/179/79
f 96/173/76 98/165/69 85/167/71 80/174/77
f 88/152/58 91/163/65 84/156/68 74/153/59
f 87/180/78 92/159/63 83/162/64 69/181/80
f 73/182/81 74/153/81 84/156/61 83/155/61
f 71/183/56 72/145/56 82/148/56 81/147/56
f 77/179/79 86/171/75 92/159/63 87/180/78
f 80/174/77 85/167/71 91/163/65 88/152/58
f 69/184/80 70/157/67 89/164/66 87/176/78
f 85/167/71 78/166/70 89/164/66 91/163/65
f 86/171/75 79/170/74 90/160/57 92/159/63
f 79/175/74 80/174/77 88/152/58 90/151/57
f 76/149/82 82/148/83 98/165/69 96/173/76
f 71/185/55 81/186/84 97/168/72 95/178/52
f 75/187/85 76/149/82 96/173/76 94/172/73
f 81/186/84 75/188/85 94/169/73 97/168/72
f 82/148/83 72/145/54 93/144/53 98/165/69
f 77/177/79 78/166/70 93/144/53 95/143/52
f 99/189/86 100/190/87 102/191/88 101/192/89
f 101/192/89 102/191/88 104/193/90 103/194/91
f 103/194/91 104/193/90 106/195/92 105/196/93
f 105/196/93 106/195/92 108/197/94 107/198/95
f 107/198/95 108/197/94 110/199/96 109/200/97
f 109/200/97 110/199/96 112/201/98 111/202/99
f 111/202/99 112/201/98 114/203/100 113/204/101
f 113/204/101 114/203/100 116/205/102 115/206/103
f 115/206/103 116/205/102 118/207/104 117/208/105
f 117/208/105 118/207/104 120/209/106 119/210/107
f 119/210/107 120/209/106 122/211/108 121/212/109
f 121/212/109 122/211/108 124/213/110 123/214/111
f 123/214/111 124/213/110 126/215/112 125/216/113
f 125/216/113 126/215/112 128/217/114 127/218/115
f 127/218/115 128/217/114 130/219/116 129/220/117
f 129/220/117 130/219/116 100/221/87 99/222/86
f 131/223/118 133/224/119 134/225/120 132/226/121
f 133/224/119 135/227/122 136/228/123 134/225/120
f 135/227/122 137/229/124 138/230/125 136/228/123
f 137/229/124 139/231/126 140/232/127 138/230/125
f 139/231/126 141/233/128 142/234/129 140/232/127
f 141/233/128 143/235/130 144/236/131 142/234/129
f 143/235/130 145/237/132 146/238/133 144/236/131
f 145/237/132 147/239/134 148/240/135 146/238/133
f 147/239/134 149/241/136 150/242/137 148/240/135
f 149/241/136 151/243/138 152/244/139 150/242/137
f 151/243/138 153/245/140 154/246/141 152/244/139
f 153/245/140 155/247/142 156/248/143 154/246/141
f 155/247/142 157/249/144 158/250/145 156/248/143
f 157/249/144 159/251/146 160/252/147 158/250/145
f 159/251/146 161/253/148 162/254/149 160/252/147
f 161/253/148 131/255/118 132/256/121 162/254/149
f 99/257/86 101/258/89 133/259/119 131/260/118
f 102/261/88 100/262/87 132/263/121 134/264/120
f 101/258/89 103/265/91 135/266/122 133/259/119
f 104/267/90 102/261/88 134/264/120 136/268/123
f 103/265/91 105/269/93 137/270/124 135/266/122
f 106/271/92 104/267/90 136/268/123 138/272/125
f 105/269/93 107/273/95 139/274/126 137/270/124
f 108/275/94 106/271/92 138/272/125 140/276/127
f 107/273/95 109/277/97 141/278/128 139/274/126
f 110/279/96 108/275/94 140/276/127 142/280/129
f 109/277/97 111/281/99 143/282/130 141/278/128
f 112/283/98 110/279/96 142/280/129 144/284/131
f 111/281/99 113/285/101 145/286/132 143/282/130
f 114/287/100 112/283/98 144/284/131 146/288/133
f 113/285/101 115/289/103 147/290/134 145/286/132
f 116/291/102 114/287/100 146/288/133 148/292/135
f 115/289/103 117/293/105 149/294/136 147/290/134
f 118/295/104 116/291/102 148/292/135 150/296/137
f 117/293/105 119/297/107 151/298/138 149/294/136
f 120/299/106 118/295/104 150/296/137 152/300/139
f 119/297/107 121/301/109 153/302/140 151/298/138
f 122/303/108 120/299/106 152/300/139 154/304/141
f 121/301/109 123/305/111 155/306/142 153/302/140
f 124/307/110 122/303/108 154/304/141 156/308/143
f 123/305/111 125/309/113 157/310/144 155/306/142
f 126/311/112 124/307/110 156/308/143 158/312/145
f 125/309/113 127/313/115 159/314/146 157/310/144
f 128/315/114 126/311/112 158/312/145 160/316/147
f 127/313/115 129/317/117 161/318/148 159/314/146
f 130/319/116 128/315/114 160/316/147 162/320/149
f 129/317/117 99/257/86 131/260/118 161/318/148
f 100/262/87 130/319/116 162/320/149 132/263/121
